<svg data-name="Layer 1" xmlns="http://www.w3.org/2000/svg" viewBox="0 0 200 200" width="200" height="200"><path style="fill:#b3b3b3;fill-rule:evenodd" d="M0 0h200v200H0V0z"/><path d="M79.167 126.497c1.058 -2.409 2.018 -5.046 2.62 -6.82a85.335 85.335 0 0 1 -6.868 -9.766l-6.95 -11.117a20.426 20.426 0 0 1 -3.955 -10.107 8.04 8.04 0 0 1 0.7 -3.63 6.673 6.673 0 0 1 2.393 -2.783 7.699 7.699 0 0 1 1.628 -0.846 175.293 175.293 0 0 1 -0.326 -19.906 27.458 27.458 0 0 1 0.895 -4.557 26.676 26.676 0 0 1 11.751 -14.974 37.093 37.093 0 0 1 9.847 -4.378c2.23 -0.635 -1.872 -7.682 0.407 -7.926 11.051 -1.139 28.923 8.952 36.637 17.285a27.067 27.067 0 0 1 6.82 17.106l-0.439 18.066a4.98 4.98 0 0 1 3.662 3.776c0.57 2.214 0 5.29 -1.921 9.505a0.602 0.602 0 0 1 -0.114 0.228l-7.926 13.021a67.708 67.708 0 0 1 -9.766 13.411c0.374 0.521 0.732 1.025 1.074 1.53 13.428 19.71 31.543 9.57 52.604 25l-0.618 0.83v20.866H28.027V148.877h0.391a1.855 1.855 0 0 1 0.911 -0.993c13.639 -7.91 45.085 -10.596 49.837 -21.387Z" style="fill:#fff"/></svg>